<svg width="2160" height="512" viewBox="0 0 2160 512" fill="none" xmlns="http://www.w3.org/2000/svg">
<rect width="512" height="512" rx="100" fill="url(#paint0_linear_151_177)"/>
<rect width="512" height="512" rx="100" fill="url(#paint1_linear_151_177)"/>
<path fill-rule="evenodd" clip-rule="evenodd" d="M327.768 269.391C338.454 263.236 338.454 247.814 327.766 241.66L327.761 241.658L291.527 220.81L331.399 202.218L345.714 210.453L345.736 210.466L386.392 233.857C403.102 243.471 403.102 267.582 386.392 277.196L345.743 300.582L345.714 300.599L328.778 310.343L288.905 291.75L327.761 269.395L327.768 269.391ZM206 290.605V311.783V311.79C206.005 324.092 219.314 331.788 229.979 325.652L252.89 312.471L292.763 331.063L247.932 356.856L247.903 356.873L207.467 380.137C190.801 389.725 170 377.695 170 358.467L170 311.783L170 273.818L206 290.605ZM295.384 181.497L255.512 200.09L229.979 185.4L229.964 185.392C219.3 179.27 206 186.968 206 199.269V223.177L170 239.965L170 199.269L170 152.585C170 133.357 190.801 121.327 207.467 130.915L247.917 154.187L247.932 154.196L295.384 181.497Z" fill="url(#paint2_linear_151_177)"/>
<path d="M617.654 423V212.941H748.465V262.453H680.936V293.068H744.363V342.58H680.936V373.488H753.299V423H617.654ZM900.809 343.166L949.148 423H877.371L861.258 388.869C859.402 385.061 857.303 379.836 854.959 373.195H854.373C852.322 379.836 851.004 383.938 850.418 385.5C849.832 386.965 844.119 399.465 833.279 423H761.941L811.746 347.414L764.871 273H836.941L853.055 307.863C855.203 311.867 857.352 317.336 859.5 324.27H860.086C862.918 315.773 864.92 310.207 866.092 307.57L881.326 273H949.441L900.809 343.166ZM1069.41 420.949C1066.58 422.316 1061.94 423.586 1055.5 424.758C1049.05 426.027 1041.29 426.662 1032.21 426.662C1014.82 426.662 1001.2 421.877 991.336 412.307C981.57 402.736 976.688 389.113 976.688 371.438V316.213H953.104V273H976.688V243.557L1038.21 226.564V273H1069.41V316.213H1038.21V361.184C1038.21 374.367 1043.44 380.959 1053.88 380.959C1058.77 380.959 1063.94 379.885 1069.41 377.736V420.949ZM1201.69 326.467C1199.34 325.393 1196.17 324.416 1192.17 323.537C1188.16 322.658 1184.84 322.219 1182.21 322.219C1161.6 322.219 1151.3 334.133 1151.3 357.961V423H1088.89V273H1151.3V299.367H1151.88C1155.69 289.895 1161.11 282.717 1168.14 277.834C1175.17 272.854 1183.38 270.363 1192.75 270.363C1196.17 270.363 1199.15 270.949 1201.69 272.121V326.467ZM1303.05 423V400.148H1302.47C1292.51 417.824 1277.27 426.662 1256.77 426.662C1242.61 426.662 1231.52 422.463 1223.51 414.064C1215.51 405.666 1211.5 394.436 1211.5 380.373C1211.5 350.881 1229.62 333.791 1265.85 329.104L1303.05 324.27C1303.05 319.387 1300.86 315.383 1296.46 312.258C1292.07 309.133 1286.16 307.57 1278.74 307.57C1261.94 307.57 1244.22 312.355 1225.56 321.926V281.35C1233.67 277.834 1243.83 274.953 1256.03 272.707C1268.24 270.461 1278.69 269.338 1287.38 269.338C1312.87 269.338 1331.33 274.807 1342.75 285.744C1354.28 296.584 1360.04 314.748 1360.04 340.236V423H1303.05ZM1266.14 372.023C1266.14 376.125 1267.41 379.494 1269.95 382.131C1272.59 384.768 1276.3 386.086 1281.08 386.086C1287.62 386.086 1292.9 383.645 1296.9 378.762C1301 373.879 1303.05 367.629 1303.05 360.012V354.299L1281.96 357.229C1271.41 358.986 1266.14 363.918 1266.14 372.023ZM1511.94 418.752C1507.94 421.096 1501.64 423 1493.04 424.465C1484.45 425.93 1474.54 426.662 1463.31 426.662C1447.49 426.662 1433.33 423.488 1420.83 417.141C1408.43 410.695 1398.81 401.711 1391.97 390.188C1385.13 378.664 1381.72 365.725 1381.72 351.369C1381.72 334.182 1385.33 319.484 1392.56 307.277C1399.88 294.973 1410.28 285.598 1423.76 279.152C1437.23 272.609 1452.86 269.338 1470.63 269.338C1480.4 269.338 1489.14 269.973 1496.85 271.242C1504.67 272.512 1509.7 273.977 1511.94 275.637V324.27C1508.82 321.828 1504.32 319.68 1498.46 317.824C1492.61 315.969 1487.19 315.041 1482.21 315.041C1470 315.041 1460.72 317.971 1454.37 323.83C1448.12 329.592 1445 337.746 1445 348.293C1445 358.645 1448.07 366.701 1454.23 372.463C1460.48 378.127 1469.02 380.959 1479.86 380.959C1491.48 380.959 1502.18 378.176 1511.94 372.609V418.752ZM1642.46 420.949C1639.63 422.316 1634.99 423.586 1628.54 424.758C1622.1 426.027 1614.33 426.662 1605.25 426.662C1587.87 426.662 1574.25 421.877 1564.38 412.307C1554.62 402.736 1549.73 389.113 1549.73 371.438V316.213H1526.15V273H1549.73V243.557L1611.26 226.564V273H1642.46V316.213H1611.26V361.184C1611.26 374.367 1616.48 380.959 1626.93 380.959C1631.81 380.959 1636.99 379.885 1642.46 377.736V420.949ZM1828.79 345.363C1828.79 370.656 1821.12 390.529 1805.79 404.982C1790.55 419.436 1769.22 426.662 1741.78 426.662C1714.53 426.662 1693.29 419.631 1678.05 405.568C1662.92 391.408 1655.35 371.926 1655.35 347.121C1655.35 331.203 1658.91 317.385 1666.04 305.666C1673.17 293.947 1683.33 284.963 1696.51 278.713C1709.7 272.463 1724.88 269.338 1742.07 269.338C1759.84 269.338 1775.22 272.609 1788.21 279.152C1801.3 285.695 1811.31 294.777 1818.24 306.398C1825.27 318.02 1828.79 331.008 1828.79 345.363ZM1765.51 345.656C1765.51 325.246 1757.69 315.041 1742.07 315.041C1726.44 315.041 1718.63 325.734 1718.63 347.121C1718.63 369.68 1726.54 380.959 1742.36 380.959C1757.79 380.959 1765.51 369.191 1765.51 345.656ZM1964.87 326.467C1962.53 325.393 1959.35 324.416 1955.35 323.537C1951.35 322.658 1948.03 322.219 1945.39 322.219C1924.78 322.219 1914.48 334.133 1914.48 357.961V423H1852.08V273H1914.48V299.367H1915.07C1918.88 289.895 1924.29 282.717 1931.33 277.834C1938.36 272.854 1946.56 270.363 1955.94 270.363C1959.35 270.363 1962.33 270.949 1964.87 272.121V326.467Z" fill="#213547"/>
<path d="M656.875 179H626.562L597.625 89.375H626.688L640.375 144.562C641.458 149.021 642.062 152.354 642.188 154.562H642.812C643.062 151.771 643.708 148.312 644.75 144.188L658.062 89.375H686.188L656.875 179ZM734 179V169.125H733.75C731.542 172.167 729.542 174.396 727.75 175.812C726 177.229 724 178.375 721.75 179.25C719.542 180.125 716.958 180.562 714 180.562C707 180.562 701.667 178.292 698 173.75C694.333 169.208 692.5 162.5 692.5 153.625V115H719.125V151.625C719.125 157.917 721.479 161.062 726.188 161.062C728.771 161.062 730.708 160.208 732 158.5C733.333 156.792 734 154.375 734 151.25V115H760.625V179H734ZM796.312 154.562C796.771 157.312 798.354 159.479 801.062 161.062C803.771 162.604 807.354 163.375 811.812 163.375C818.021 163.375 823.896 162.188 829.438 159.812V176.688C822.979 179.271 815.146 180.562 805.938 180.562C794.771 180.562 786.083 177.708 779.875 172C773.667 166.292 770.562 158.438 770.562 148.438C770.562 141.562 771.917 135.5 774.625 130.25C777.375 125 781.417 120.896 786.75 117.938C792.125 114.938 798.042 113.438 804.5 113.438C811.125 113.438 816.792 114.729 821.5 117.312C826.208 119.896 829.771 123.521 832.188 128.188C834.646 132.854 835.875 138.312 835.875 144.562V154.562H796.312ZM812.312 140.625C812.312 133.25 809.667 129.562 804.375 129.562C802.167 129.562 800.312 130.583 798.812 132.625C797.312 134.625 796.438 137.292 796.188 140.625H812.312ZM892.875 110.5V179H865.75V110.5H840.688V89.375H918.25V110.5H892.875ZM967.375 179V169.125H967.125C964.917 172.167 962.917 174.396 961.125 175.812C959.375 177.229 957.375 178.375 955.125 179.25C952.917 180.125 950.333 180.562 947.375 180.562C940.375 180.562 935.042 178.292 931.375 173.75C927.708 169.208 925.875 162.5 925.875 153.625V115H952.5V151.625C952.5 157.917 954.854 161.062 959.562 161.062C962.146 161.062 964.083 160.208 965.375 158.5C966.708 156.792 967.375 154.375 967.375 151.25V115H994V179H967.375ZM1078.94 145.062C1078.94 152.062 1077.77 158.271 1075.44 163.688C1073.15 169.062 1069.88 173.229 1065.62 176.188C1061.38 179.104 1056.56 180.562 1051.19 180.562C1047.06 180.562 1043.52 179.812 1040.56 178.312C1037.65 176.771 1035.33 174.792 1033.62 172.375H1033.38V179H1006.75V84.25H1033.38V123.688H1033.62C1035.71 120.521 1038.52 118.021 1042.06 116.188C1045.65 114.354 1049.58 113.438 1053.88 113.438C1061.96 113.438 1068.15 116.125 1072.44 121.5C1076.77 126.875 1078.94 134.729 1078.94 145.062ZM1051.94 145.875C1051.94 141.583 1051.1 138.354 1049.44 136.188C1047.81 134.021 1045.46 132.938 1042.38 132.938C1039.67 132.938 1037.4 134.083 1035.56 136.375C1033.77 138.625 1032.88 141.562 1032.88 145.188V149.062C1032.88 152.729 1033.69 155.646 1035.31 157.812C1036.94 159.979 1039.12 161.062 1041.88 161.062C1045.08 161.062 1047.56 159.75 1049.31 157.125C1051.06 154.458 1051.94 150.708 1051.94 145.875ZM1111.94 154.562C1112.4 157.312 1113.98 159.479 1116.69 161.062C1119.4 162.604 1122.98 163.375 1127.44 163.375C1133.65 163.375 1139.52 162.188 1145.06 159.812V176.688C1138.6 179.271 1130.77 180.562 1121.56 180.562C1110.4 180.562 1101.71 177.708 1095.5 172C1089.29 166.292 1086.19 158.438 1086.19 148.438C1086.19 141.562 1087.54 135.5 1090.25 130.25C1093 125 1097.04 120.896 1102.38 117.938C1107.75 114.938 1113.67 113.438 1120.12 113.438C1126.75 113.438 1132.42 114.729 1137.12 117.312C1141.83 119.896 1145.4 123.521 1147.81 128.188C1150.27 132.854 1151.5 138.312 1151.5 144.562V154.562H1111.94ZM1127.94 140.625C1127.94 133.25 1125.29 129.562 1120 129.562C1117.79 129.562 1115.94 130.583 1114.44 132.625C1112.94 134.625 1112.06 137.292 1111.81 140.625H1127.94Z" fill="#213547"/>
<defs>
<linearGradient id="paint0_linear_151_177" x1="0" y1="0" x2="512" y2="512" gradientUnits="userSpaceOnUse">
<stop stop-color="#1B3245"/>
<stop offset="1" stop-color="#0C2028"/>
</linearGradient>
<linearGradient id="paint1_linear_151_177" x1="0" y1="0" x2="512" y2="512" gradientUnits="userSpaceOnUse">
<stop stop-color="#1B3245"/>
<stop offset="1" stop-color="#0C2028"/>
</linearGradient>
<linearGradient id="paint2_linear_151_177" x1="170" y1="128" x2="431" y2="389" gradientUnits="userSpaceOnUse">
<stop stop-color="#00E1C3"/>
<stop offset="1" stop-color="#00D1D5"/>
</linearGradient>
</defs>
</svg>
