<svg width="2050" height="512" viewBox="0 0 2050 512" fill="none" xmlns="http://www.w3.org/2000/svg">
<rect width="512" height="512" rx="100" fill="url(#paint0_linear_4_24)"/>
<path fill-rule="evenodd" clip-rule="evenodd" d="M327.768 269.391C338.454 263.236 338.454 247.814 327.766 241.66L327.761 241.658L291.527 220.81L331.399 202.218L345.714 210.453L345.736 210.466L386.392 233.857C403.102 243.471 403.102 267.582 386.392 277.196L345.743 300.582L345.714 300.599L328.778 310.343L288.905 291.75L327.761 269.395L327.768 269.391ZM206 290.605V311.783V311.79C206.005 324.092 219.314 331.788 229.979 325.652L252.89 312.471L292.763 331.063L247.932 356.856L247.903 356.873L207.467 380.137C190.801 389.725 170 377.695 170 358.467L170 311.783L170 273.818L206 290.605ZM295.384 181.497L255.512 200.09L229.979 185.4L229.964 185.392C219.3 179.27 206 186.968 206 199.269V223.177L170 239.965L170 199.269L170 152.585C170 133.357 190.801 121.327 207.467 130.915L247.917 154.187L247.932 154.196L295.384 181.497Z" fill="url(#paint1_linear_4_24)"/>
<path d="M712.639 424L696.965 378.736C693.938 369.85 689.982 362.867 685.1 357.789C680.314 352.711 675.09 350.172 669.426 350.172H666.936V424H603.654V213.941H687.736C717.131 213.941 738.811 218.775 752.775 228.443C766.838 238.014 773.869 252.418 773.869 271.656C773.869 286.109 769.768 298.219 761.564 307.984C753.459 317.75 741.35 324.83 725.236 329.225V329.811C734.123 332.545 741.496 336.988 747.355 343.141C753.312 349.293 758.635 358.424 763.322 370.533L783.977 424H712.639ZM706.633 280.592C706.633 273.561 704.484 267.994 700.188 263.893C695.891 259.791 689.152 257.74 679.973 257.74H666.936V305.787H678.361C686.857 305.787 693.693 303.395 698.869 298.609C704.045 293.824 706.633 287.818 706.633 280.592ZM969.572 346.363C969.572 371.656 961.906 391.529 946.574 405.982C931.34 420.436 910.002 427.662 882.561 427.662C855.314 427.662 834.074 420.631 818.84 406.568C803.703 392.408 796.135 372.926 796.135 348.121C796.135 332.203 799.699 318.385 806.828 306.666C813.957 294.947 824.113 285.963 837.297 279.713C850.48 273.463 865.666 270.338 882.854 270.338C900.627 270.338 916.008 273.609 928.996 280.152C942.082 286.695 952.092 295.777 959.025 307.398C966.057 319.02 969.572 332.008 969.572 346.363ZM906.291 346.656C906.291 326.246 898.479 316.041 882.854 316.041C867.229 316.041 859.416 326.734 859.416 348.121C859.416 370.68 867.326 381.959 883.146 381.959C898.576 381.959 906.291 370.191 906.291 346.656ZM1076.07 424V401.148H1075.48C1065.52 418.824 1050.29 427.662 1029.78 427.662C1015.62 427.662 1004.53 423.463 996.525 415.064C988.518 406.666 984.514 395.436 984.514 381.373C984.514 351.881 1002.63 334.791 1038.86 330.104L1076.07 325.27C1076.07 320.387 1073.87 316.383 1069.47 313.258C1065.08 310.133 1059.17 308.57 1051.75 308.57C1034.95 308.57 1017.23 313.355 998.576 322.926V282.35C1006.68 278.834 1016.84 275.953 1029.04 273.707C1041.25 271.461 1051.7 270.338 1060.39 270.338C1085.88 270.338 1104.34 275.807 1115.76 286.744C1127.29 297.584 1133.05 315.748 1133.05 341.236V424H1076.07ZM1039.15 373.023C1039.15 377.125 1040.42 380.494 1042.96 383.131C1045.6 385.768 1049.31 387.086 1054.09 387.086C1060.64 387.086 1065.91 384.645 1069.91 379.762C1074.02 374.879 1076.07 368.629 1076.07 361.012V355.299L1054.97 358.229C1044.43 359.986 1039.15 364.918 1039.15 373.023ZM1261.52 424V406.568H1260.93C1255.95 413.111 1249.46 418.287 1241.45 422.096C1233.44 425.807 1225.53 427.662 1217.72 427.662C1204.92 427.662 1193.64 424.537 1183.88 418.287C1174.11 411.939 1166.79 403.102 1161.91 391.773C1157.12 380.445 1154.73 367.066 1154.73 351.637C1154.73 335.719 1157.61 321.607 1163.37 309.303C1169.13 296.998 1177.24 287.428 1187.69 280.592C1198.14 273.756 1209.86 270.338 1222.84 270.338C1229 270.338 1234.66 271.217 1239.84 272.975C1245.11 274.732 1249.65 277.125 1253.46 280.152C1257.37 283.082 1259.86 286.012 1260.93 288.941H1261.52V201.93H1323.92V424H1261.52ZM1262.83 344.459C1262.83 335.475 1260.83 328.492 1256.83 323.512C1252.92 318.531 1247.6 316.041 1240.86 316.041C1234.12 316.041 1228.61 319.166 1224.31 325.416C1220.11 331.568 1218.01 339.82 1218.01 350.172C1218.01 371.363 1225.33 381.959 1239.98 381.959C1246.92 381.959 1252.43 379.127 1256.54 373.463C1260.73 367.701 1262.83 359.352 1262.83 348.414V344.459ZM1548.62 424V337.574C1548.62 330.348 1547.31 324.977 1544.67 321.461C1542.13 317.848 1537.93 316.041 1532.07 316.041C1526.31 316.041 1521.82 318.238 1518.6 322.633C1515.37 326.93 1513.76 332.936 1513.76 340.65V424H1451.36V339.039C1451.36 323.707 1446.13 316.041 1435.69 316.041C1429.34 316.041 1424.55 318.287 1421.33 322.779C1418.11 327.174 1416.5 333.521 1416.5 341.822V424H1354.09V274H1416.5V297.73H1417.08C1419.43 293.531 1423.14 289.283 1428.21 284.986C1433.39 280.592 1439.2 277.076 1445.65 274.439C1452.09 271.705 1459.07 270.338 1466.59 270.338C1477.24 270.338 1486.17 272.438 1493.4 276.637C1500.72 280.836 1506.83 287.477 1511.71 296.559C1516.98 288.16 1524.02 281.715 1532.8 277.223C1541.59 272.633 1551.36 270.338 1562.1 270.338C1577.82 270.338 1589.88 275.465 1598.28 285.719C1606.68 295.973 1610.88 310.768 1610.88 330.104V424H1548.62ZM1722.36 424V401.148H1721.77C1711.81 418.824 1696.57 427.662 1676.07 427.662C1661.91 427.662 1650.82 423.463 1642.81 415.064C1634.81 406.666 1630.8 395.436 1630.8 381.373C1630.8 351.881 1648.92 334.791 1685.15 330.104L1722.36 325.27C1722.36 320.387 1720.16 316.383 1715.76 313.258C1711.37 310.133 1705.46 308.57 1698.04 308.57C1681.24 308.57 1663.52 313.355 1644.87 322.926V282.35C1652.97 278.834 1663.13 275.953 1675.33 273.707C1687.54 271.461 1697.99 270.338 1706.68 270.338C1732.17 270.338 1750.63 275.807 1762.05 286.744C1773.58 297.584 1779.34 315.748 1779.34 341.236V424H1722.36ZM1685.44 373.023C1685.44 377.125 1686.71 380.494 1689.25 383.131C1691.89 385.768 1695.6 387.086 1700.38 387.086C1706.93 387.086 1712.2 384.645 1716.2 379.762C1720.3 374.879 1722.36 368.629 1722.36 361.012V355.299L1701.26 358.229C1690.71 359.986 1685.44 364.918 1685.44 373.023ZM1976.8 344.459C1976.8 360.865 1974.02 375.367 1968.45 387.965C1962.88 400.562 1955.02 410.328 1944.87 417.262C1934.71 424.195 1923.28 427.662 1910.59 427.662C1893.01 427.662 1879.68 421.266 1870.6 408.473H1870.01V492.994H1807.61V274H1870.01V294.361H1870.6C1875.58 286.842 1882.02 280.982 1889.93 276.783C1897.84 272.486 1906.83 270.338 1916.89 270.338C1936.22 270.338 1951.02 276.783 1961.27 289.674C1971.62 302.564 1976.8 320.826 1976.8 344.459ZM1913.52 346.363C1913.52 336.891 1911.66 329.469 1907.95 324.098C1904.34 318.727 1898.72 316.041 1891.11 316.041C1884.46 316.041 1879.09 318.873 1874.99 324.537C1870.89 330.201 1868.84 337.965 1868.84 347.828V350.758C1868.84 360.23 1870.6 367.799 1874.11 373.463C1877.63 379.127 1882.9 381.959 1889.93 381.959C1897.45 381.959 1903.26 378.883 1907.37 372.73C1911.47 366.48 1913.52 357.691 1913.52 346.363Z" fill="#213547"/>
<path d="M642.875 181H612.562L583.625 91.375H612.688L626.375 146.562C627.458 151.021 628.062 154.354 628.188 156.562H628.812C629.062 153.771 629.708 150.312 630.75 146.188L644.062 91.375H672.188L642.875 181ZM720 181V171.125H719.75C717.542 174.167 715.542 176.396 713.75 177.812C712 179.229 710 180.375 707.75 181.25C705.542 182.125 702.958 182.562 700 182.562C693 182.562 687.667 180.292 684 175.75C680.333 171.208 678.5 164.5 678.5 155.625V117H705.125V153.625C705.125 159.917 707.479 163.062 712.188 163.062C714.771 163.062 716.708 162.208 718 160.5C719.333 158.792 720 156.375 720 153.25V117H746.625V181H720ZM782.312 156.562C782.771 159.312 784.354 161.479 787.062 163.062C789.771 164.604 793.354 165.375 797.812 165.375C804.021 165.375 809.896 164.188 815.438 161.812V178.688C808.979 181.271 801.146 182.562 791.938 182.562C780.771 182.562 772.083 179.708 765.875 174C759.667 168.292 756.562 160.438 756.562 150.438C756.562 143.562 757.917 137.5 760.625 132.25C763.375 127 767.417 122.896 772.75 119.938C778.125 116.938 784.042 115.438 790.5 115.438C797.125 115.438 802.792 116.729 807.5 119.312C812.208 121.896 815.771 125.521 818.188 130.188C820.646 134.854 821.875 140.312 821.875 146.562V156.562H782.312ZM798.312 142.625C798.312 135.25 795.667 131.562 790.375 131.562C788.167 131.562 786.312 132.583 784.812 134.625C783.312 136.625 782.438 139.292 782.188 142.625H798.312ZM878.875 112.5V181H851.75V112.5H826.688V91.375H904.25V112.5H878.875ZM953.375 181V171.125H953.125C950.917 174.167 948.917 176.396 947.125 177.812C945.375 179.229 943.375 180.375 941.125 181.25C938.917 182.125 936.333 182.562 933.375 182.562C926.375 182.562 921.042 180.292 917.375 175.75C913.708 171.208 911.875 164.5 911.875 155.625V117H938.5V153.625C938.5 159.917 940.854 163.062 945.562 163.062C948.146 163.062 950.083 162.208 951.375 160.5C952.708 158.792 953.375 156.375 953.375 153.25V117H980V181H953.375ZM1064.94 147.062C1064.94 154.062 1063.77 160.271 1061.44 165.688C1059.15 171.062 1055.88 175.229 1051.62 178.188C1047.38 181.104 1042.56 182.562 1037.19 182.562C1033.06 182.562 1029.52 181.812 1026.56 180.312C1023.65 178.771 1021.33 176.792 1019.62 174.375H1019.38V181H992.75V86.25H1019.38V125.688H1019.62C1021.71 122.521 1024.52 120.021 1028.06 118.188C1031.65 116.354 1035.58 115.438 1039.88 115.438C1047.96 115.438 1054.15 118.125 1058.44 123.5C1062.77 128.875 1064.94 136.729 1064.94 147.062ZM1037.94 147.875C1037.94 143.583 1037.1 140.354 1035.44 138.188C1033.81 136.021 1031.46 134.938 1028.38 134.938C1025.67 134.938 1023.4 136.083 1021.56 138.375C1019.77 140.625 1018.88 143.562 1018.88 147.188V151.062C1018.88 154.729 1019.69 157.646 1021.31 159.812C1022.94 161.979 1025.12 163.062 1027.88 163.062C1031.08 163.062 1033.56 161.75 1035.31 159.125C1037.06 156.458 1037.94 152.708 1037.94 147.875ZM1097.94 156.562C1098.4 159.312 1099.98 161.479 1102.69 163.062C1105.4 164.604 1108.98 165.375 1113.44 165.375C1119.65 165.375 1125.52 164.188 1131.06 161.812V178.688C1124.6 181.271 1116.77 182.562 1107.56 182.562C1096.4 182.562 1087.71 179.708 1081.5 174C1075.29 168.292 1072.19 160.438 1072.19 150.438C1072.19 143.562 1073.54 137.5 1076.25 132.25C1079 127 1083.04 122.896 1088.38 119.938C1093.75 116.938 1099.67 115.438 1106.12 115.438C1112.75 115.438 1118.42 116.729 1123.12 119.312C1127.83 121.896 1131.4 125.521 1133.81 130.188C1136.27 134.854 1137.5 140.312 1137.5 146.562V156.562H1097.94ZM1113.94 142.625C1113.94 135.25 1111.29 131.562 1106 131.562C1103.79 131.562 1101.94 132.583 1100.44 134.625C1098.94 136.625 1098.06 139.292 1097.81 142.625H1113.94Z" fill="#213547"/>
<defs>
<linearGradient id="paint0_linear_4_24" x1="0" y1="0" x2="512" y2="512" gradientUnits="userSpaceOnUse">
<stop stop-color="#1B3245"/>
<stop offset="1" stop-color="#0C2028"/>
</linearGradient>
<linearGradient id="paint1_linear_4_24" x1="170" y1="128" x2="431" y2="389" gradientUnits="userSpaceOnUse">
<stop stop-color="#00E1C3"/>
<stop offset="1" stop-color="#00D1D5"/>
</linearGradient>
</defs>
</svg>
