<svg width="800" height="800" viewBox="0 0 800 800" fill="none" xmlns="http://www.w3.org/2000/svg">
<rect width="800" height="800" rx="100" fill="#5865F2"/>
<g clip-path="url(#clip0_150_133)">
<path d="M573.549 242.73C540.698 227.694 506.018 217.026 470.395 211C465.52 219.713 461.109 228.677 457.181 237.855C419.235 232.138 380.647 232.138 342.701 237.855C338.771 228.678 334.36 219.714 329.487 211C293.841 217.077 259.138 227.77 226.255 242.809C160.972 339.376 143.275 433.544 152.124 526.376C190.355 554.617 233.146 576.095 278.638 589.876C288.881 576.102 297.945 561.489 305.734 546.193C290.941 540.669 276.662 533.853 263.064 525.826C266.643 523.231 270.143 520.557 273.525 517.962C313.092 536.565 356.277 546.211 400 546.211C443.724 546.211 486.908 536.565 526.475 517.962C529.896 520.754 533.396 523.427 536.936 525.826C523.312 533.866 509.007 540.695 494.188 546.232C501.967 561.521 511.031 576.122 521.284 589.876C566.814 576.15 609.638 554.683 647.876 526.415V526.415C658.259 418.761 630.14 325.457 573.549 242.73ZM316.942 469.285C292.284 469.285 271.913 446.913 271.913 419.39C271.913 391.866 291.576 369.297 316.863 369.297C342.15 369.297 362.364 391.866 361.932 419.39C361.499 446.913 342.072 469.285 316.942 469.285ZM483.058 469.285C458.361 469.285 438.068 446.913 438.068 419.39C438.068 391.866 457.732 369.297 483.058 369.297C508.385 369.297 528.441 391.866 528.009 419.39C527.576 446.913 508.188 469.285 483.058 469.285Z" fill="white"/>
</g>
<defs>
<clipPath id="clip0_150_133">
<rect width="500" height="378.876" fill="white" transform="translate(150 211)"/>
</clipPath>
</defs>
</svg>
