<svg width="800" height="800" viewBox="0 0 800 800" fill="none" xmlns="http://www.w3.org/2000/svg">
<rect width="800" height="800" rx="100" fill="#FF4500"/>
<path d="M399.558 685.117C557.268 685.117 685.117 557.268 685.117 399.558C685.117 241.849 557.268 114 399.558 114C241.849 114 114 241.849 114 399.558C114 557.268 241.849 685.117 399.558 685.117Z" fill="#FF4500"/>
<path d="M650 404.153C650 373.837 625.395 349.232 595.079 349.232C580.141 349.232 566.96 354.944 557.294 364.61C519.947 337.808 468.102 320.234 410.984 318.037L436.028 200.726L517.311 217.861C518.19 238.511 535.325 255.207 556.415 255.207C577.944 255.207 595.518 237.633 595.518 216.104C595.518 194.575 577.944 177 556.415 177C541.037 177 527.856 185.787 521.705 198.968L430.756 179.636C428.12 179.197 425.483 179.636 423.287 180.954C421.09 182.272 419.772 184.469 418.893 187.105L391.213 318.037C332.777 319.794 280.492 336.93 242.707 364.61C233.04 355.383 219.42 349.232 204.921 349.232C174.605 349.232 150 373.837 150 404.153C150 426.561 163.181 445.453 182.513 454.241C181.634 459.513 181.195 465.225 181.195 470.937C181.195 555.295 279.174 623.397 400.439 623.397C521.705 623.397 619.684 555.295 619.684 470.937C619.684 465.225 619.244 459.953 618.366 454.68C636.38 445.893 650 426.561 650 404.153ZM274.341 443.257C274.341 421.728 291.916 404.153 313.445 404.153C334.974 404.153 352.548 421.728 352.548 443.257C352.548 464.786 334.974 482.36 313.445 482.36C291.916 482.36 274.341 464.786 274.341 443.257ZM492.707 546.508C465.905 573.309 414.939 575.067 400 575.067C385.062 575.067 333.656 572.87 307.293 546.508C303.339 542.554 303.339 535.963 307.293 532.009C311.248 528.055 317.838 528.055 321.793 532.009C338.489 548.705 374.517 554.856 400.439 554.856C426.362 554.856 461.951 548.705 479.086 532.009C483.04 528.055 489.631 528.055 493.585 532.009C496.661 536.402 496.661 542.554 492.707 546.508ZM485.677 482.36C464.148 482.36 446.573 464.786 446.573 443.257C446.573 421.728 464.148 404.153 485.677 404.153C507.206 404.153 524.78 421.728 524.78 443.257C524.78 464.786 507.206 482.36 485.677 482.36Z" fill="white"/>
</svg>
