<svg width="800" height="800" viewBox="0 0 800 800" fill="none" xmlns="http://www.w3.org/2000/svg">
<rect width="800" height="800" rx="100" fill="url(#paint0_linear_150_140)"/>
<path fill-rule="evenodd" clip-rule="evenodd" d="M181.063 395.777C297.671 344.973 375.428 311.48 414.334 295.298C525.418 249.094 548.501 241.068 563.545 240.803C566.854 240.744 574.253 241.564 579.045 245.453C583.092 248.737 584.205 253.172 584.738 256.286C585.271 259.399 585.935 266.491 585.407 272.032C579.387 335.282 553.34 488.772 540.089 559.612C534.482 589.587 523.441 599.638 512.753 600.621C489.524 602.759 471.885 585.27 449.387 570.522C414.182 547.445 394.293 533.079 360.12 510.56C320.628 484.535 346.229 470.231 368.736 446.855C374.626 440.737 476.972 347.645 478.953 339.2C479.201 338.144 479.431 334.207 477.092 332.128C474.753 330.049 471.301 330.76 468.81 331.326C465.279 332.127 409.038 369.3 300.088 442.845C284.124 453.807 269.665 459.148 256.709 458.868C242.427 458.559 214.954 450.793 194.531 444.154C169.481 436.011 149.572 431.706 151.305 417.877C152.208 410.674 162.128 403.307 181.063 395.777Z" fill="white"/>
<defs>
<linearGradient id="paint0_linear_150_140" x1="400" y1="0" x2="400" y2="794.067" gradientUnits="userSpaceOnUse">
<stop stop-color="#2AABEE"/>
<stop offset="1" stop-color="#229ED9"/>
</linearGradient>
</defs>
</svg>
