<svg width="800" height="800" viewBox="0 0 800 800" fill="none" xmlns="http://www.w3.org/2000/svg">
<rect width="800" height="800" rx="100" fill="#1DA1F2"/>
<path d="M597.48 297.397C597.782 301.772 597.782 306.146 597.782 310.561C597.782 445.084 495.363 600.23 308.085 600.23V600.15C252.762 600.23 198.589 584.385 152.016 554.509C160.06 555.477 168.145 555.96 176.25 555.981C222.097 556.021 266.633 540.639 302.702 512.315C259.133 511.489 220.927 483.085 207.581 441.617C222.843 444.56 238.569 443.955 253.548 439.863C206.048 430.267 171.875 388.537 171.875 340.074C171.875 339.631 171.875 339.207 171.875 338.784C186.028 346.666 201.875 351.041 218.085 351.525C173.347 321.629 159.556 262.118 186.573 215.591C238.266 279.193 314.536 317.859 396.411 321.951C388.206 286.592 399.415 249.539 425.867 224.682C466.875 186.138 531.371 188.113 569.919 229.097C592.722 224.602 614.577 216.236 634.577 204.382C626.976 227.948 611.069 247.966 589.819 260.687C610 258.308 629.718 252.905 648.286 244.66C634.617 265.142 617.399 282.983 597.48 297.397Z" fill="white"/>
</svg>
