<svg width="800" height="800" viewBox="0 0 800 800" fill="none" xmlns="http://www.w3.org/2000/svg">
<rect width="800" height="800" rx="100" fill="black"/>
<path d="M308 289H515V494H308V289Z" fill="#D9D9D9"/>
<path d="M648.144 274.162C645.212 263.108 639.43 253.019 631.376 244.905C623.323 236.791 613.281 230.937 602.256 227.93C561.796 217 399.5 217 399.5 217C399.5 217 237.204 217 196.722 227.93C185.702 230.943 175.666 236.798 167.617 244.912C159.568 253.025 153.788 263.111 150.856 274.162C140 314.939 140 400 140 400C140 400 140 485.061 150.856 525.838C153.788 536.892 159.57 546.981 167.624 555.095C175.677 563.209 185.719 569.063 196.744 572.07C237.204 583 399.5 583 399.5 583C399.5 583 561.796 583 602.278 572.07C613.304 569.065 623.347 563.212 631.4 555.098C639.454 546.984 645.236 536.893 648.166 525.838C659 485.061 659 400 659 400C659 400 659 314.939 648.144 274.162ZM346.411 477.226V322.774L482.064 400L346.411 477.226Z" fill="#FF0000"/>
</svg>
