<svg width="1958" height="512" viewBox="0 0 1958 512" fill="none" xmlns="http://www.w3.org/2000/svg">
<rect width="512" height="512" rx="100" fill="url(#paint0_linear_705_99)"/>
<path fill-rule="evenodd" clip-rule="evenodd" d="M327.768 269.391C338.454 263.236 338.454 247.814 327.766 241.66L327.761 241.658L291.527 220.81L331.399 202.218L345.714 210.453L345.736 210.466L386.392 233.857C403.102 243.471 403.102 267.582 386.392 277.196L345.743 300.582L345.714 300.599L328.778 310.343L288.905 291.75L327.761 269.395L327.768 269.391ZM206 290.605V311.783V311.79C206.005 324.092 219.314 331.788 229.979 325.652L252.89 312.471L292.763 331.063L247.932 356.856L247.903 356.873L207.467 380.137C190.801 389.725 170 377.695 170 358.467L170 311.783L170 273.818L206 290.605ZM295.384 181.497L255.512 200.09L229.979 185.4L229.964 185.392C219.3 179.27 206 186.968 206 199.269V223.177L170 239.965L170 199.269L170 152.585C170 133.357 190.801 121.327 207.467 130.915L247.917 154.187L247.932 154.196L295.384 181.497Z" fill="url(#paint1_linear_705_99)"/>
<path d="M744.158 423H673.113L605.291 212.941H673.406L705.486 342.287C708.025 352.736 709.441 360.549 709.734 365.725H711.199C711.785 359.182 713.299 351.076 715.74 341.408L746.941 212.941H812.859L744.158 423ZM924.92 423V399.855H924.334C919.158 406.984 914.471 412.209 910.271 415.529C906.17 418.85 901.482 421.535 896.209 423.586C891.033 425.637 884.979 426.662 878.045 426.662C861.639 426.662 849.139 421.34 840.545 410.695C831.951 400.051 827.654 384.328 827.654 363.527V273H890.057V358.84C890.057 373.586 895.574 380.959 906.609 380.959C912.664 380.959 917.205 378.957 920.232 374.953C923.357 370.949 924.92 365.285 924.92 357.961V273H987.322V423H924.92ZM1070.96 365.725C1072.04 372.17 1075.75 377.248 1082.1 380.959C1088.45 384.572 1096.84 386.379 1107.29 386.379C1121.84 386.379 1135.61 383.596 1148.6 378.029V417.58C1133.46 423.635 1115.11 426.662 1093.52 426.662C1067.35 426.662 1046.99 419.973 1032.44 406.594C1017.89 393.215 1010.61 374.807 1010.61 351.369C1010.61 335.256 1013.79 321.047 1020.13 308.742C1026.58 296.438 1036.05 286.818 1048.55 279.885C1061.15 272.854 1075.02 269.338 1090.15 269.338C1105.68 269.338 1118.96 272.365 1130 278.42C1141.03 284.475 1149.38 292.971 1155.05 303.908C1160.81 314.846 1163.69 327.639 1163.69 342.287V365.725H1070.96ZM1108.46 333.059C1108.46 315.773 1102.26 307.131 1089.86 307.131C1084.69 307.131 1080.34 309.523 1076.82 314.309C1073.31 318.996 1071.26 325.246 1070.67 333.059H1108.46ZM1297.28 262.453V423H1233.71V262.453H1174.97V212.941H1356.76V262.453H1297.28ZM1471.89 423V399.855H1471.31C1466.13 406.984 1461.44 412.209 1457.24 415.529C1453.14 418.85 1448.46 421.535 1443.18 423.586C1438.01 425.637 1431.95 426.662 1425.02 426.662C1408.61 426.662 1396.11 421.34 1387.52 410.695C1378.92 400.051 1374.63 384.328 1374.63 363.527V273H1437.03V358.84C1437.03 373.586 1442.55 380.959 1453.58 380.959C1459.64 380.959 1464.18 378.957 1467.21 374.953C1470.33 370.949 1471.89 365.285 1471.89 357.961V273H1534.29V423H1471.89ZM1733.37 343.459C1733.37 359.865 1730.63 374.416 1725.16 387.111C1719.79 399.709 1712.13 409.475 1702.17 416.408C1692.21 423.244 1680.93 426.662 1668.33 426.662C1658.66 426.662 1650.36 424.904 1643.43 421.389C1636.59 417.775 1631.17 413.137 1627.17 407.473H1626.58V423H1564.18V200.93H1626.58V293.361H1627.17C1632.05 285.939 1638.64 280.08 1646.94 275.783C1655.34 271.486 1664.57 269.338 1674.63 269.338C1693.57 269.338 1708.07 275.637 1718.13 288.234C1728.29 300.832 1733.37 319.24 1733.37 343.459ZM1670.09 345.363C1670.09 335.305 1668.13 327.736 1664.23 322.658C1660.42 317.58 1654.9 315.041 1647.67 315.041C1641.33 315.041 1636 317.727 1631.71 323.098C1627.51 328.371 1625.41 335.256 1625.41 343.752V352.834C1625.41 361.428 1627.31 368.264 1631.12 373.342C1634.93 378.42 1640.06 380.959 1646.5 380.959C1654.02 380.959 1659.83 377.883 1663.93 371.73C1668.04 365.48 1670.09 356.691 1670.09 345.363ZM1810.71 365.725C1811.79 372.17 1815.5 377.248 1821.84 380.959C1828.19 384.572 1836.59 386.379 1847.04 386.379C1861.59 386.379 1875.36 383.596 1888.35 378.029V417.58C1873.21 423.635 1854.85 426.662 1833.27 426.662C1807.1 426.662 1786.74 419.973 1772.19 406.594C1757.63 393.215 1750.36 374.807 1750.36 351.369C1750.36 335.256 1753.53 321.047 1759.88 308.742C1766.33 296.438 1775.8 286.818 1788.3 279.885C1800.9 272.854 1814.76 269.338 1829.9 269.338C1845.43 269.338 1858.71 272.365 1869.74 278.42C1880.78 284.475 1889.13 292.971 1894.79 303.908C1900.55 314.846 1903.44 327.639 1903.44 342.287V365.725H1810.71ZM1848.21 333.059C1848.21 315.773 1842.01 307.131 1829.61 307.131C1824.43 307.131 1820.09 309.523 1816.57 314.309C1813.05 318.996 1811 325.246 1810.42 333.059H1848.21Z" fill="url(#paint2_linear_705_99)"/>
<path d="M678.5 122.938C678.5 129.062 676.938 134.5 673.812 139.25C670.729 144 666.312 147.688 660.562 150.312C654.812 152.896 648.125 154.188 640.5 154.188H632.25V183H605.25V93.375H642C654.625 93.375 663.854 95.7708 669.688 100.562C675.562 105.354 678.5 112.812 678.5 122.938ZM649.938 123.875C649.938 120.208 648.875 117.438 646.75 115.562C644.625 113.688 641.5 112.75 637.375 112.75H632.25V134.875H638.312C646.062 134.875 649.938 131.208 649.938 123.875ZM722.312 183V173.25H722.062C717.812 180.792 711.312 184.562 702.562 184.562C696.521 184.562 691.792 182.771 688.375 179.188C684.958 175.604 683.25 170.812 683.25 164.812C683.25 152.229 690.979 144.938 706.438 142.938L722.312 140.875C722.312 138.792 721.375 137.083 719.5 135.75C717.625 134.417 715.104 133.75 711.938 133.75C704.771 133.75 697.208 135.792 689.25 139.875V122.562C692.708 121.062 697.042 119.833 702.25 118.875C707.458 117.917 711.917 117.438 715.625 117.438C726.5 117.438 734.375 119.771 739.25 124.438C744.167 129.062 746.625 136.812 746.625 147.688V183H722.312ZM706.562 161.25C706.562 163 707.104 164.438 708.188 165.562C709.312 166.688 710.896 167.25 712.938 167.25C715.729 167.25 717.979 166.208 719.688 164.125C721.438 162.042 722.312 159.375 722.312 156.125V153.688L713.312 154.938C708.812 155.688 706.562 157.792 706.562 161.25ZM806.812 141.812C805.812 141.354 804.458 140.938 802.75 140.562C801.042 140.188 799.625 140 798.5 140C789.708 140 785.312 145.083 785.312 155.25V183H758.688V119H785.312V130.25H785.562C787.188 126.208 789.5 123.146 792.5 121.062C795.5 118.938 799 117.875 803 117.875C804.458 117.875 805.729 118.125 806.812 118.625V141.812ZM859.625 182.125C858.417 182.708 856.438 183.25 853.688 183.75C850.938 184.292 847.625 184.562 843.75 184.562C836.333 184.562 830.521 182.521 826.312 178.438C822.146 174.354 820.062 168.542 820.062 161V137.438H810V119H820.062V106.438L846.312 99.1875V119H859.625V137.438H846.312V156.625C846.312 162.25 848.542 165.062 853 165.062C855.083 165.062 857.292 164.604 859.625 163.688V182.125ZM974.75 149.875C974.75 160.667 971.479 169.146 964.938 175.312C958.438 181.479 949.333 184.562 937.625 184.562C926 184.562 916.938 181.562 910.438 175.562C903.979 169.521 900.75 161.208 900.75 150.625C900.75 143.833 902.271 137.938 905.312 132.938C908.354 127.938 912.688 124.104 918.312 121.438C923.938 118.771 930.417 117.438 937.75 117.438C945.333 117.438 951.896 118.833 957.438 121.625C963.021 124.417 967.292 128.292 970.25 133.25C973.25 138.208 974.75 143.75 974.75 149.875ZM947.75 150C947.75 141.292 944.417 136.938 937.75 136.938C931.083 136.938 927.75 141.5 927.75 150.625C927.75 160.25 931.125 165.062 937.875 165.062C944.458 165.062 947.75 160.042 947.75 150ZM1034 107.625C1031.25 106.667 1028.69 106.188 1026.31 106.188C1023.35 106.188 1021.17 106.958 1019.75 108.5C1018.33 110 1017.62 112.042 1017.62 114.625V119H1032.44V137.438H1017.62V183H991V137.438H980.25V119H991V113.125C991 107.917 992.208 103.333 994.625 99.375C997.042 95.375 1000.54 92.2708 1005.12 90.0625C1009.75 87.8542 1015.35 86.75 1021.94 86.75C1026.69 86.75 1030.71 87.2083 1034 88.125V107.625Z" fill="url(#paint3_linear_705_99)"/>
<defs>
<linearGradient id="paint0_linear_705_99" x1="0" y1="0" x2="512" y2="512" gradientUnits="userSpaceOnUse">
<stop stop-color="#1B3245"/>
<stop offset="1" stop-color="#0C2028"/>
</linearGradient>
<linearGradient id="paint1_linear_705_99" x1="170" y1="128" x2="431" y2="389" gradientUnits="userSpaceOnUse">
<stop stop-color="#00E1C3"/>
<stop offset="1" stop-color="#00D1D5"/>
</linearGradient>
<linearGradient id="paint2_linear_705_99" x1="556" y1="180" x2="1142.37" y2="1008.36" gradientUnits="userSpaceOnUse">
<stop offset="0.167988" stop-color="#42D392"/>
<stop offset="1" stop-color="#647EFF"/>
</linearGradient>
<linearGradient id="paint3_linear_705_99" x1="552" y1="81" x2="798.996" y2="400.017" gradientUnits="userSpaceOnUse">
<stop offset="0.167988" stop-color="#42D392"/>
<stop offset="1" stop-color="#647EFF"/>
</linearGradient>
</defs>
</svg>
