<svg width="1958" height="512" viewBox="0 0 1958 512" fill="none" xmlns="http://www.w3.org/2000/svg">
<rect width="512" height="512" rx="100" fill="url(#paint0_linear_705_111)"/>
<path fill-rule="evenodd" clip-rule="evenodd" d="M327.768 269.391C338.454 263.236 338.454 247.814 327.766 241.66L327.761 241.658L291.527 220.81L331.399 202.218L345.714 210.453L345.736 210.466L386.392 233.857C403.102 243.471 403.102 267.582 386.392 277.196L345.743 300.582L345.714 300.599L328.778 310.343L288.905 291.75L327.761 269.395L327.768 269.391ZM206 290.605V311.783V311.79C206.005 324.092 219.314 331.788 229.979 325.652L252.89 312.471L292.763 331.063L247.932 356.856L247.903 356.873L207.467 380.137C190.801 389.725 170 377.695 170 358.467L170 311.783L170 273.818L206 290.605ZM295.384 181.497L255.512 200.09L229.979 185.4L229.964 185.392C219.3 179.27 206 186.968 206 199.269V223.177L170 239.965L170 199.269L170 152.585C170 133.357 190.801 121.327 207.467 130.915L247.917 154.187L247.932 154.196L295.384 181.497Z" fill="url(#paint1_linear_705_111)"/>
<path d="M744.158 373H673.113L605.291 162.941H673.406L705.486 292.287C708.025 302.736 709.441 310.549 709.734 315.725H711.199C711.785 309.182 713.299 301.076 715.74 291.408L746.941 162.941H812.859L744.158 373ZM924.92 373V349.855H924.334C919.158 356.984 914.471 362.209 910.271 365.529C906.17 368.85 901.482 371.535 896.209 373.586C891.033 375.637 884.979 376.662 878.045 376.662C861.639 376.662 849.139 371.34 840.545 360.695C831.951 350.051 827.654 334.328 827.654 313.527V223H890.057V308.84C890.057 323.586 895.574 330.959 906.609 330.959C912.664 330.959 917.205 328.957 920.232 324.953C923.357 320.949 924.92 315.285 924.92 307.961V223H987.322V373H924.92ZM1070.96 315.725C1072.04 322.17 1075.75 327.248 1082.1 330.959C1088.45 334.572 1096.84 336.379 1107.29 336.379C1121.84 336.379 1135.61 333.596 1148.6 328.029V367.58C1133.46 373.635 1115.11 376.662 1093.52 376.662C1067.35 376.662 1046.99 369.973 1032.44 356.594C1017.89 343.215 1010.61 324.807 1010.61 301.369C1010.61 285.256 1013.79 271.047 1020.13 258.742C1026.58 246.438 1036.05 236.818 1048.55 229.885C1061.15 222.854 1075.02 219.338 1090.15 219.338C1105.68 219.338 1118.96 222.365 1130 228.42C1141.03 234.475 1149.38 242.971 1155.05 253.908C1160.81 264.846 1163.69 277.639 1163.69 292.287V315.725H1070.96ZM1108.46 283.059C1108.46 265.773 1102.26 257.131 1089.86 257.131C1084.69 257.131 1080.34 259.523 1076.82 264.309C1073.31 268.996 1071.26 275.246 1070.67 283.059H1108.46ZM1297.28 212.453V373H1233.71V212.453H1174.97V162.941H1356.76V212.453H1297.28ZM1471.89 373V349.855H1471.31C1466.13 356.984 1461.44 362.209 1457.24 365.529C1453.14 368.85 1448.46 371.535 1443.18 373.586C1438.01 375.637 1431.95 376.662 1425.02 376.662C1408.61 376.662 1396.11 371.34 1387.52 360.695C1378.92 350.051 1374.63 334.328 1374.63 313.527V223H1437.03V308.84C1437.03 323.586 1442.55 330.959 1453.58 330.959C1459.64 330.959 1464.18 328.957 1467.21 324.953C1470.33 320.949 1471.89 315.285 1471.89 307.961V223H1534.29V373H1471.89ZM1733.37 293.459C1733.37 309.865 1730.63 324.416 1725.16 337.111C1719.79 349.709 1712.13 359.475 1702.17 366.408C1692.21 373.244 1680.93 376.662 1668.33 376.662C1658.66 376.662 1650.36 374.904 1643.43 371.389C1636.59 367.775 1631.17 363.137 1627.17 357.473H1626.58V373H1564.18V150.93H1626.58V243.361H1627.17C1632.05 235.939 1638.64 230.08 1646.94 225.783C1655.34 221.486 1664.57 219.338 1674.63 219.338C1693.57 219.338 1708.07 225.637 1718.13 238.234C1728.29 250.832 1733.37 269.24 1733.37 293.459ZM1670.09 295.363C1670.09 285.305 1668.13 277.736 1664.23 272.658C1660.42 267.58 1654.9 265.041 1647.67 265.041C1641.33 265.041 1636 267.727 1631.71 273.098C1627.51 278.371 1625.41 285.256 1625.41 293.752V302.834C1625.41 311.428 1627.31 318.264 1631.12 323.342C1634.93 328.42 1640.06 330.959 1646.5 330.959C1654.02 330.959 1659.83 327.883 1663.93 321.73C1668.04 315.48 1670.09 306.691 1670.09 295.363ZM1810.71 315.725C1811.79 322.17 1815.5 327.248 1821.84 330.959C1828.19 334.572 1836.59 336.379 1847.04 336.379C1861.59 336.379 1875.36 333.596 1888.35 328.029V367.58C1873.21 373.635 1854.85 376.662 1833.27 376.662C1807.1 376.662 1786.74 369.973 1772.19 356.594C1757.63 343.215 1750.36 324.807 1750.36 301.369C1750.36 285.256 1753.53 271.047 1759.88 258.742C1766.33 246.438 1775.8 236.818 1788.3 229.885C1800.9 222.854 1814.76 219.338 1829.9 219.338C1845.43 219.338 1858.71 222.365 1869.74 228.42C1880.78 234.475 1889.13 242.971 1894.79 253.908C1900.55 264.846 1903.44 277.639 1903.44 292.287V315.725H1810.71ZM1848.21 283.059C1848.21 265.773 1842.01 257.131 1829.61 257.131C1824.43 257.131 1820.09 259.523 1816.57 264.309C1813.05 268.996 1811 275.246 1810.42 283.059H1848.21Z" fill="url(#paint2_linear_705_111)"/>
<defs>
<linearGradient id="paint0_linear_705_111" x1="0" y1="0" x2="512" y2="512" gradientUnits="userSpaceOnUse">
<stop stop-color="#1B3245"/>
<stop offset="1" stop-color="#0C2028"/>
</linearGradient>
<linearGradient id="paint1_linear_705_111" x1="170" y1="128" x2="431" y2="389" gradientUnits="userSpaceOnUse">
<stop stop-color="#00E1C3"/>
<stop offset="1" stop-color="#00D1D5"/>
</linearGradient>
<linearGradient id="paint2_linear_705_111" x1="556" y1="130" x2="1142.37" y2="958.359" gradientUnits="userSpaceOnUse">
<stop offset="0.167988" stop-color="#42D392"/>
<stop offset="1" stop-color="#647EFF"/>
</linearGradient>
</defs>
</svg>
